<svg width="227" height="212" viewBox="0 0 227 212" fill="none" xmlns="http://www.w3.org/2000/svg">
<rect width="227" height="212" fill="url(#paint0_angular_7310_34)"/>
<path d="M27.4 96C22.0667 96 18.0333 94.5 15.3 91.5C12.5667 88.4333 11.2 84.0667 11.2 78.4V74.4H21.6V79.2C21.6 83.7333 23.5 86 27.3 86C29.1667 86 30.5667 85.4667 31.5 84.4C32.5 83.2667 33 81.4667 33 79C33 76.0667 32.3333 73.5 31 71.3C29.6667 69.0333 27.2 66.3333 23.6 63.2C19.0667 59.2 15.9 55.6 14.1 52.4C12.3 49.1333 11.4 45.4667 11.4 41.4C11.4 35.8667 12.8 31.6 15.6 28.6C18.4 25.5333 22.4667 24 27.8 24C33.0667 24 37.0333 25.5333 39.7 28.6C42.4333 31.6 43.8 35.9333 43.8 41.6V44.5H33.4V40.9C33.4 38.5 32.9333 36.7667 32 35.7C31.0667 34.5667 29.7 34 27.9 34C24.2333 34 22.4 36.2333 22.4 40.7C22.4 43.2333 23.0667 45.6 24.4 47.8C25.8 50 28.3 52.6667 31.9 55.8C36.5 59.8 39.6667 63.4333 41.4 66.7C43.1333 69.9667 44 73.8 44 78.2C44 83.9333 42.5667 88.3333 39.7 91.4C36.9 94.4667 32.8 96 27.4 96ZM69.307 96C63.9737 96 59.907 94.5 57.107 91.5C54.307 88.4333 52.907 84.0667 52.907 78.4V25H63.907V79.2C63.907 81.6 64.3737 83.3333 65.307 84.4C66.307 85.4667 67.707 86 69.507 86C71.307 86 72.6737 85.4667 73.607 84.4C74.607 83.3333 75.107 81.6 75.107 79.2V25H85.707V78.4C85.707 84.0667 84.307 88.4333 81.507 91.5C78.707 94.5 74.6404 96 69.307 96ZM96.5414 25H112.741C118.208 25 122.308 26.4667 125.041 29.4C127.775 32.3333 129.141 36.6333 129.141 42.3V49.2C129.141 54.8667 127.775 59.1667 125.041 62.1C122.308 65.0333 118.208 66.5 112.741 66.5H107.541V95H96.5414V25ZM112.741 56.5C114.541 56.5 115.875 56 116.741 55C117.675 54 118.141 52.3 118.141 49.9V41.6C118.141 39.2 117.675 37.5 116.741 36.5C115.875 35.5 114.541 35 112.741 35H107.541V56.5H112.741ZM138.116 25H168.116V35H149.116V53.5H164.216V63.5H149.116V85H168.116V95H138.116V25ZM177.444 25H193.744C199.41 25 203.544 26.3333 206.144 29C208.744 31.6 210.044 35.6333 210.044 41.1V45.4C210.044 52.6667 207.644 57.2667 202.844 59.2V59.4C205.51 60.2 207.377 61.8333 208.444 64.3C209.577 66.7667 210.144 70.0667 210.144 74.2V86.5C210.144 88.5 210.21 90.1333 210.344 91.4C210.477 92.6 210.81 93.8 211.344 95H200.144C199.744 93.8667 199.477 92.8 199.344 91.8C199.21 90.8 199.144 89 199.144 86.4V73.6C199.144 70.4 198.61 68.1667 197.544 66.9C196.544 65.6333 194.777 65 192.244 65H188.444V95H177.444V25ZM192.444 55C194.644 55 196.277 54.4333 197.344 53.3C198.477 52.1667 199.044 50.2667 199.044 47.6V42.2C199.044 39.6667 198.577 37.8333 197.644 36.7C196.777 35.5667 195.377 35 193.444 35H188.444V55H192.444ZM28.7 189C23.3667 189 19.3 187.5 16.5 184.5C13.7 181.433 12.3 177.067 12.3 171.4V134.6C12.3 128.933 13.7 124.6 16.5 121.6C19.3 118.533 23.3667 117 28.7 117C34.0333 117 38.1 118.533 40.9 121.6C43.7 124.6 45.1 128.933 45.1 134.6V140.6H34.7V133.9C34.7 129.3 32.8 127 29 127C25.2 127 23.3 129.3 23.3 133.9V172.2C23.3 176.733 25.2 179 29 179C32.8 179 34.7 176.733 34.7 172.2V158.5H29.2V148.5H45.1V171.4C45.1 177.067 43.7 181.433 40.9 184.5C38.1 187.5 34.0333 189 28.7 189ZM63.7977 158.2L50.4977 118H62.1977L69.6977 143.7H69.8977L77.3977 118H88.0977L74.7977 158.2V188H63.7977V158.2ZM96.0531 118H111.753L118.753 168.1H118.953L125.953 118H141.653V188H131.253V135H131.053L123.053 188H113.853L105.853 135H105.653V188H96.0531V118Z" fill="white"/>
<path d="M15.3 91.5L13.807 92.8307L13.8142 92.8389L13.8216 92.847L15.3 91.5ZM11.2 74.4V72.4H9.2V74.4H11.2ZM21.6 74.4H23.6V72.4H21.6V74.4ZM31.5 84.4L30.0003 83.0767L29.9948 83.083L31.5 84.4ZM31 71.3L29.2761 72.314L29.2828 72.3254L29.2896 72.3366L31 71.3ZM23.6 63.2L22.2767 64.6997L22.287 64.7086L23.6 63.2ZM14.1 52.4L12.3483 53.3652L12.3526 53.3729L12.3568 53.3805L14.1 52.4ZM15.6 28.6L17.0621 29.9646L17.0696 29.9566L17.077 29.9485L15.6 28.6ZM39.7 28.6L38.1908 29.9124L38.206 29.9298L38.2216 29.947L39.7 28.6ZM43.8 44.5V46.5H45.8V44.5H43.8ZM33.4 44.5H31.4V46.5H33.4V44.5ZM32 35.7L30.4561 36.9714L30.4752 36.9945L30.4948 37.017L32 35.7ZM24.4 47.8L22.6896 48.8366L22.7009 48.8553L22.7127 48.8737L24.4 47.8ZM31.9 55.8L30.587 57.3086L30.5876 57.3092L31.9 55.8ZM41.4 66.7L39.6333 67.6374L39.6333 67.6374L41.4 66.7ZM39.7 91.4L38.2389 90.0342L38.2309 90.0428L38.223 90.0515L39.7 91.4ZM27.4 94C22.4431 94 19.0232 92.6168 16.7784 90.153L13.8216 92.847C17.0435 96.3832 21.6903 98 27.4 98V94ZM16.793 90.1693C14.4922 87.5878 13.2 83.7627 13.2 78.4H9.2C9.2 84.3706 10.6411 89.2788 13.807 92.8307L16.793 90.1693ZM13.2 78.4V74.4H9.2V78.4H13.2ZM11.2 76.4H21.6V72.4H11.2V76.4ZM19.6 74.4V79.2H23.6V74.4H19.6ZM19.6 79.2C19.6 81.6974 20.116 83.9429 21.4923 85.5848C22.9252 87.2943 24.99 88 27.3 88V84C25.81 84 25.0248 83.5724 24.5577 83.0152C24.034 82.3904 23.6 81.236 23.6 79.2H19.6ZM27.3 88C29.5495 88 31.5807 87.3449 33.0052 85.717L29.9948 83.083C29.5526 83.5884 28.7838 84 27.3 84V88ZM32.9997 85.7232C34.4722 84.0544 35 81.6653 35 79H31C31 81.268 30.5278 82.479 30.0003 83.0768L32.9997 85.7232ZM35 79C35 75.7535 34.2586 72.8179 32.7104 70.2634L29.2896 72.3366C30.4081 74.1821 31 76.3798 31 79H35ZM32.7239 70.286C31.226 67.7396 28.5659 64.8707 24.9131 61.6914L22.287 64.7086C25.8341 67.7959 28.1073 70.3271 29.2761 72.314L32.7239 70.286ZM24.9232 61.7003C20.4639 57.7656 17.4852 54.3386 15.8432 51.4195L12.3568 53.3805C14.3148 56.8614 17.6694 60.6344 22.2768 64.6997L24.9232 61.7003ZM15.8517 51.4348C14.229 48.49 13.4 45.1604 13.4 41.4H9.4C9.4 45.7729 10.371 49.7767 12.3483 53.3652L15.8517 51.4348ZM13.4 41.4C13.4 36.1935 14.7135 32.481 17.0621 29.9646L14.1379 27.2354C10.8865 30.719 9.4 35.5398 9.4 41.4H13.4ZM17.077 29.9485C19.397 27.4075 22.859 26 27.8 26V22C22.0744 22 17.403 23.6591 14.123 27.2515L17.077 29.9485ZM27.8 26C32.6707 26 36.0095 27.4038 38.1908 29.9124L41.2092 27.2876C38.0572 23.6628 33.4627 22 27.8 22V26ZM38.2216 29.947C40.5064 32.4547 41.8 36.2338 41.8 41.6H45.8C45.8 35.6329 44.3602 30.7453 41.1784 27.253L38.2216 29.947ZM41.8 41.6V44.5H45.8V41.6H41.8ZM43.8 42.5H33.4V46.5H43.8V42.5ZM35.4 44.5V40.9H31.4V44.5H35.4ZM35.4 40.9C35.4 38.325 34.9149 35.9941 33.5052 34.383L30.4948 37.017C30.9518 37.5392 31.4 38.675 31.4 40.9H35.4ZM33.5439 34.4286C32.1454 32.7305 30.1493 32 27.9 32V36C29.2507 36 29.9879 36.4028 30.4561 36.9714L33.5439 34.4286ZM27.9 32C25.6428 32 23.6243 32.7065 22.2291 34.406C20.8961 36.0299 20.4 38.2438 20.4 40.7H24.4C24.4 38.6896 24.8206 37.5534 25.3209 36.944C25.7591 36.4102 26.4905 36 27.9 36V32ZM20.4 40.7C20.4 43.6047 21.1699 46.3291 22.6896 48.8366L26.1104 46.7634C24.9634 44.8709 24.4 42.8619 24.4 40.7H20.4ZM22.7127 48.8737C24.2683 51.3183 26.9409 54.1352 30.587 57.3086L33.2131 54.2914C29.6591 51.1981 27.3317 48.6817 26.0873 46.7262L22.7127 48.8737ZM30.5876 57.3092C35.1067 61.2388 38.0657 64.6831 39.6333 67.6374L43.1667 65.7626C41.2676 62.1835 37.8933 58.3612 33.2124 54.2908L30.5876 57.3092ZM39.6333 67.6374C41.1869 70.5653 42 74.065 42 78.2H46C46 73.535 45.0798 69.368 43.1667 65.7626L39.6333 67.6374ZM42 78.2C42 83.6143 40.6493 87.4557 38.2389 90.0342L41.1611 92.7658C44.484 89.211 46 84.2524 46 78.2H42ZM38.223 90.0515C35.9076 92.5874 32.4165 94 27.4 94V98C33.1835 98 37.8924 96.3459 41.177 92.7485L38.223 90.0515ZM57.107 91.5L55.6301 92.8485L55.6374 92.8566L55.6449 92.8646L57.107 91.5ZM52.907 25V23H50.907V25H52.907ZM63.907 25H65.907V23H63.907V25ZM65.307 84.4L63.8019 85.717L63.8245 85.7428L63.848 85.7679L65.307 84.4ZM73.607 84.4L72.148 83.0321L72.1245 83.0572L72.1019 83.083L73.607 84.4ZM75.107 25V23H73.107V25H75.107ZM85.707 25H87.707V23H85.707V25ZM81.507 91.5L82.9691 92.8646L82.9766 92.8566L82.984 92.8485L81.507 91.5ZM69.307 94C64.353 94 60.886 92.6177 58.5691 90.1354L55.6449 92.8646C58.928 96.3823 63.5944 98 69.307 98V94ZM58.584 90.1515C56.2267 87.5697 54.907 83.7515 54.907 78.4H50.907C50.907 84.3818 52.3873 89.297 55.6301 92.8485L58.584 90.1515ZM54.907 78.4V25H50.907V78.4H54.907ZM52.907 27H63.907V23H52.907V27ZM61.907 25V79.2H65.907V25H61.907ZM61.907 79.2C61.907 81.775 62.3921 84.1059 63.8019 85.717L66.8122 83.083C66.3553 82.5608 65.907 81.425 65.907 79.2H61.907ZM63.848 85.7679C65.3105 87.328 67.2912 88 69.507 88V84C68.1228 84 67.3035 83.6054 66.7661 83.0321L63.848 85.7679ZM69.507 88C71.7166 88 73.7013 87.3294 75.1122 85.717L72.1019 83.083C71.6461 83.6039 70.8975 84 69.507 84V88ZM75.0661 85.7679C76.5784 84.1548 77.107 81.8008 77.107 79.2H73.107C73.107 81.3992 72.6357 82.5119 72.148 83.0321L75.0661 85.7679ZM77.107 79.2V25H73.107V79.2H77.107ZM75.107 27H85.707V23H75.107V27ZM83.707 25V78.4H87.707V25H83.707ZM83.707 78.4C83.707 83.7515 82.3873 87.5697 80.0301 90.1515L82.984 92.8485C86.2267 89.297 87.707 84.3818 87.707 78.4H83.707ZM80.0449 90.1354C77.728 92.6177 74.2611 94 69.307 94V98C75.0197 98 79.686 96.3823 82.9691 92.8646L80.0449 90.1354ZM96.5414 25V23H94.5414V25H96.5414ZM125.041 29.4L123.578 30.7634L123.578 30.7635L125.041 29.4ZM125.041 62.1L123.578 60.7365L123.578 60.7365L125.041 62.1ZM107.541 66.5V64.5H105.541V66.5H107.541ZM107.541 95V97H109.541V95H107.541ZM96.5414 95H94.5414V97H96.5414V95ZM116.741 55L115.279 53.6354L115.254 53.6623L115.23 53.6901L116.741 55ZM116.741 36.5L115.23 37.8099L115.254 37.8377L115.279 37.8646L116.741 36.5ZM107.541 35V33H105.541V35H107.541ZM107.541 56.5H105.541V58.5H107.541V56.5ZM96.5414 27H112.741V23H96.5414V27ZM112.741 27C117.862 27 121.345 28.3672 123.578 30.7634L126.505 28.0365C123.271 24.5661 118.554 23 112.741 23V27ZM123.578 30.7635C125.846 33.1976 127.141 36.9301 127.141 42.3H131.141C131.141 36.3366 129.703 31.4691 126.505 28.0365L123.578 30.7635ZM127.141 42.3V49.2H131.141V42.3H127.141ZM127.141 49.2C127.141 54.5699 125.846 58.3024 123.578 60.7365L126.505 63.4634C129.703 60.0309 131.141 55.1634 131.141 49.2H127.141ZM123.578 60.7365C121.345 63.1328 117.862 64.5 112.741 64.5V68.5C118.554 68.5 123.271 66.9339 126.505 63.4634L123.578 60.7365ZM112.741 64.5H107.541V68.5H112.741V64.5ZM105.541 66.5V95H109.541V66.5H105.541ZM107.541 93H96.5414V97H107.541V93ZM98.5414 95V25H94.5414V95H98.5414ZM112.741 58.5C114.902 58.5 116.883 57.8905 118.253 56.3099L115.23 53.6901C114.867 54.1095 114.181 54.5 112.741 54.5V58.5ZM118.204 56.3646C119.664 54.8001 120.141 52.4569 120.141 49.9H116.141C116.141 52.1431 115.686 53.1999 115.279 53.6354L118.204 56.3646ZM120.141 49.9V41.6H116.141V49.9H120.141ZM120.141 41.6C120.141 39.0431 119.664 36.6999 118.204 35.1354L115.279 37.8646C115.686 38.3001 116.141 39.3569 116.141 41.6H120.141ZM118.253 35.1901C116.883 33.6095 114.902 33 112.741 33V37C114.181 37 114.867 37.3905 115.23 37.8099L118.253 35.1901ZM112.741 33H107.541V37H112.741V33ZM105.541 35V56.5H109.541V35H105.541ZM107.541 58.5H112.741V54.5H107.541V58.5ZM138.116 25V23H136.116V25H138.116ZM168.116 25H170.116V23H168.116V25ZM168.116 35V37H170.116V35H168.116ZM149.116 35V33H147.116V35H149.116ZM149.116 53.5H147.116V55.5H149.116V53.5ZM164.216 53.5H166.216V51.5H164.216V53.5ZM164.216 63.5V65.5H166.216V63.5H164.216ZM149.116 63.5V61.5H147.116V63.5H149.116ZM149.116 85H147.116V87H149.116V85ZM168.116 85H170.116V83H168.116V85ZM168.116 95V97H170.116V95H168.116ZM138.116 95H136.116V97H138.116V95ZM138.116 27H168.116V23H138.116V27ZM166.116 25V35H170.116V25H166.116ZM168.116 33H149.116V37H168.116V33ZM147.116 35V53.5H151.116V35H147.116ZM149.116 55.5H164.216V51.5H149.116V55.5ZM162.216 53.5V63.5H166.216V53.5H162.216ZM164.216 61.5H149.116V65.5H164.216V61.5ZM147.116 63.5V85H151.116V63.5H147.116ZM149.116 87H168.116V83H149.116V87ZM166.116 85V95H170.116V85H166.116ZM168.116 93H138.116V97H168.116V93ZM140.116 95V25H136.116V95H140.116ZM177.444 25V23H175.444V25H177.444ZM206.144 29L204.712 30.3962L204.721 30.4053L204.73 30.4142L206.144 29ZM202.844 59.2L202.097 57.3448L200.844 57.8494V59.2H202.844ZM202.844 59.4H200.844V60.8881L202.269 61.3157L202.844 59.4ZM208.444 64.3L206.608 65.0938L206.617 65.1145L206.626 65.135L208.444 64.3ZM210.344 91.4L208.355 91.6094L208.356 91.6209L210.344 91.4ZM211.344 95V97H214.421L213.171 94.1877L211.344 95ZM200.144 95L198.258 95.6656L198.729 97H200.144V95ZM197.544 66.9L195.974 68.1393L195.994 68.1641L196.014 68.1883L197.544 66.9ZM188.444 65V63H186.444V65H188.444ZM188.444 95V97H190.444V95H188.444ZM177.444 95H175.444V97H177.444V95ZM197.344 53.3L195.93 51.8858L195.908 51.9072L195.887 51.9293L197.344 53.3ZM197.644 36.7L196.055 37.9149L196.077 37.9436L196.1 37.9714L197.644 36.7ZM188.444 35V33H186.444V35H188.444ZM188.444 55H186.444V57H188.444V55ZM177.444 27H193.744V23H177.444V27ZM193.744 27C199.149 27 202.646 28.277 204.712 30.3962L207.576 27.6038C204.442 24.3896 199.672 23 193.744 23V27ZM204.73 30.4142C206.806 32.4903 208.044 35.9077 208.044 41.1H212.044C212.044 35.3589 210.682 30.7097 207.558 27.5858L204.73 30.4142ZM208.044 41.1V45.4H212.044V41.1H208.044ZM208.044 45.4C208.044 48.8328 207.474 51.4517 206.471 53.3749C205.49 55.2538 204.053 56.5566 202.097 57.3448L203.591 61.0552C206.434 59.91 208.597 57.9462 210.017 55.2251C211.414 52.5483 212.044 49.2339 212.044 45.4H208.044ZM200.844 59.2V59.4H204.844V59.2H200.844ZM202.269 61.3157C204.394 61.9531 205.785 63.1908 206.608 65.0938L210.279 63.5062C208.969 60.4758 206.627 58.4469 203.418 57.4843L202.269 61.3157ZM206.626 65.135C207.593 67.2391 208.144 70.2185 208.144 74.2H212.144C212.144 69.9148 211.561 66.2943 210.261 63.465L206.626 65.135ZM208.144 74.2V86.5H212.144V74.2H208.144ZM208.144 86.5C208.144 88.5354 208.211 90.2457 208.355 91.6094L212.333 91.1906C212.21 90.021 212.144 88.4646 212.144 86.5H208.144ZM208.356 91.6209C208.514 93.0421 208.907 94.4409 209.516 95.8123L213.171 94.1877C212.714 93.1591 212.44 92.1579 212.332 91.1791L208.356 91.6209ZM211.344 93H200.144V97H211.344V93ZM202.03 94.3344C201.667 93.3072 201.438 92.3759 201.326 91.5357L197.361 92.0643C197.516 93.2241 197.82 94.4261 198.258 95.6656L202.03 94.3344ZM201.326 91.5357C201.213 90.6837 201.144 89.007 201.144 86.4H197.144C197.144 88.993 197.208 90.9163 197.361 92.0643L201.326 91.5357ZM201.144 86.4V73.6H197.144V86.4H201.144ZM201.144 73.6C201.144 70.3077 200.621 67.4496 199.074 65.6117L196.014 68.1883C196.6 68.8837 197.144 70.4923 197.144 73.6H201.144ZM199.114 65.6607C197.56 63.6926 195.038 63 192.244 63V67C194.517 67 195.528 67.574 195.974 68.1393L199.114 65.6607ZM192.244 63H188.444V67H192.244V63ZM186.444 65V95H190.444V65H186.444ZM188.444 93H177.444V97H188.444V93ZM179.444 95V25H175.444V95H179.444ZM192.444 57C194.962 57 197.221 56.3485 198.8 54.6707L195.887 51.9293C195.333 52.5182 194.325 53 192.444 53V57ZM198.758 54.7142C200.45 53.0223 201.044 50.4639 201.044 47.6H197.044C197.044 50.0694 196.504 51.311 195.93 51.8858L198.758 54.7142ZM201.044 47.6V42.2H197.044V47.6H201.044ZM201.044 42.2C201.044 39.5079 200.564 37.1003 199.188 35.4286L196.1 37.9714C196.59 38.5664 197.044 39.8254 197.044 42.2H201.044ZM199.232 35.4851C197.863 33.6946 195.762 33 193.444 33V37C194.992 37 195.691 37.4387 196.055 37.9149L199.232 35.4851ZM193.444 33H188.444V37H193.444V33ZM186.444 35V55H190.444V35H186.444ZM188.444 57H192.444V53H188.444V57ZM16.5 184.5L15.023 185.849L15.0304 185.857L15.0379 185.865L16.5 184.5ZM16.5 121.6L17.9621 122.965L17.9696 122.957L17.977 122.949L16.5 121.6ZM40.9 121.6L39.423 122.949L39.4304 122.957L39.4379 122.965L40.9 121.6ZM45.1 140.6V142.6H47.1V140.6H45.1ZM34.7 140.6H32.7V142.6H34.7V140.6ZM34.7 158.5H36.7V156.5H34.7V158.5ZM29.2 158.5H27.2V160.5H29.2V158.5ZM29.2 148.5V146.5H27.2V148.5H29.2ZM45.1 148.5H47.1V146.5H45.1V148.5ZM40.9 184.5L42.3621 185.865L42.3696 185.857L42.377 185.849L40.9 184.5ZM28.7 187C23.746 187 20.279 185.618 17.9621 183.135L15.0379 185.865C18.321 189.382 22.9874 191 28.7 191V187ZM17.977 183.151C15.6197 180.57 14.3 176.752 14.3 171.4H10.3C10.3 177.382 11.7803 182.297 15.023 185.849L17.977 183.151ZM14.3 171.4V134.6H10.3V171.4H14.3ZM14.3 134.6C14.3 129.245 15.621 125.473 17.9621 122.965L15.0379 120.235C11.779 123.727 10.3 128.622 10.3 134.6H14.3ZM17.977 122.949C20.297 120.408 23.759 119 28.7 119V115C22.9744 115 18.303 116.659 15.023 120.251L17.977 122.949ZM28.7 119C33.6411 119 37.103 120.408 39.423 122.949L42.377 120.251C39.097 116.659 34.4256 115 28.7 115V119ZM39.4379 122.965C41.779 125.473 43.1 129.245 43.1 134.6H47.1C47.1 128.622 45.621 123.727 42.3621 120.235L39.4379 122.965ZM43.1 134.6V140.6H47.1V134.6H43.1ZM45.1 138.6H34.7V142.6H45.1V138.6ZM36.7 140.6V133.9H32.7V140.6H36.7ZM36.7 133.9C36.7 131.375 36.1863 129.109 34.8169 127.451C33.3871 125.72 31.3196 125 29 125V129C30.4804 129 31.2629 129.43 31.7331 129.999C32.2637 130.641 32.7 131.825 32.7 133.9H36.7ZM29 125C26.6804 125 24.6129 125.72 23.1831 127.451C21.8137 129.109 21.3 131.375 21.3 133.9H25.3C25.3 131.825 25.7363 130.641 26.2669 129.999C26.7371 129.43 27.5196 129 29 129V125ZM21.3 133.9V172.2H25.3V133.9H21.3ZM21.3 172.2C21.3 174.697 21.816 176.943 23.1923 178.585C24.6252 180.294 26.69 181 29 181V177C27.51 177 26.7248 176.572 26.2577 176.015C25.734 175.39 25.3 174.236 25.3 172.2H21.3ZM29 181C31.31 181 33.3748 180.294 34.8077 178.585C36.184 176.943 36.7 174.697 36.7 172.2H32.7C32.7 174.236 32.266 175.39 31.7423 176.015C31.2752 176.572 30.49 177 29 177V181ZM36.7 172.2V158.5H32.7V172.2H36.7ZM34.7 156.5H29.2V160.5H34.7V156.5ZM31.2 158.5V148.5H27.2V158.5H31.2ZM29.2 150.5H45.1V146.5H29.2V150.5ZM43.1 148.5V171.4H47.1V148.5H43.1ZM43.1 171.4C43.1 176.752 41.7803 180.57 39.423 183.151L42.377 185.849C45.6197 182.297 47.1 177.382 47.1 171.4H43.1ZM39.4379 183.135C37.121 185.618 33.654 187 28.7 187V191C34.4126 191 39.079 189.382 42.3621 185.865L39.4379 183.135ZM63.7977 158.2H65.7977V157.878L65.6964 157.572L63.7977 158.2ZM50.4977 118V116H47.7293L48.5989 118.628L50.4977 118ZM62.1977 118L64.1176 117.44L63.6974 116H62.1977V118ZM69.6977 143.7L67.7777 144.26L68.1979 145.7H69.6977V143.7ZM69.8977 143.7V145.7H71.3974L71.8176 144.26L69.8977 143.7ZM77.3977 118V116H75.8979L75.4777 117.44L77.3977 118ZM88.0977 118L89.9964 118.628L90.866 116H88.0977V118ZM74.7977 158.2L72.8989 157.572L72.7977 157.878V158.2H74.7977ZM74.7977 188V190H76.7977V188H74.7977ZM63.7977 188H61.7977V190H63.7977V188ZM65.6964 157.572L52.3964 117.372L48.5989 118.628L61.8989 158.828L65.6964 157.572ZM50.4977 120H62.1977V116H50.4977V120ZM60.2777 118.56L67.7777 144.26L71.6176 143.14L64.1176 117.44L60.2777 118.56ZM69.6977 145.7H69.8977V141.7H69.6977V145.7ZM71.8176 144.26L79.3176 118.56L75.4777 117.44L67.9777 143.14L71.8176 144.26ZM77.3977 120H88.0977V116H77.3977V120ZM86.1989 117.372L72.8989 157.572L76.6964 158.828L89.9964 118.628L86.1989 117.372ZM72.7977 158.2V188H76.7977V158.2H72.7977ZM74.7977 186H63.7977V190H74.7977V186ZM65.7977 188V158.2H61.7977V188H65.7977ZM96.0531 118V116H94.0531V118H96.0531ZM111.753 118L113.734 117.723L113.493 116H111.753V118ZM118.753 168.1L116.772 168.377L117.013 170.1H118.753V168.1ZM118.953 168.1V170.1H120.693L120.934 168.377L118.953 168.1ZM125.953 118V116H124.213L123.972 117.723L125.953 118ZM141.653 118H143.653V116H141.653V118ZM141.653 188V190H143.653V188H141.653ZM131.253 188H129.253V190H131.253V188ZM131.253 135H133.253V133H131.253V135ZM131.053 135V133H129.332L129.076 134.701L131.053 135ZM123.053 188V190H124.774L125.031 188.299L123.053 188ZM113.853 188L111.876 188.299L112.132 190H113.853V188ZM105.853 135L107.831 134.701L107.574 133H105.853V135ZM105.653 135V133H103.653V135H105.653ZM105.653 188V190H107.653V188H105.653ZM96.0531 188H94.0531V190H96.0531V188ZM96.0531 120H111.753V116H96.0531V120ZM109.772 118.277L116.772 168.377L120.734 167.823L113.734 117.723L109.772 118.277ZM118.753 170.1H118.953V166.1H118.753V170.1ZM120.934 168.377L127.934 118.277L123.972 117.723L116.972 167.823L120.934 168.377ZM125.953 120H141.653V116H125.953V120ZM139.653 118V188H143.653V118H139.653ZM141.653 186H131.253V190H141.653V186ZM133.253 188V135H129.253V188H133.253ZM131.253 133H131.053V137H131.253V133ZM129.076 134.701L121.076 187.701L125.031 188.299L133.031 135.299L129.076 134.701ZM123.053 186H113.853V190H123.053V186ZM115.831 187.701L107.831 134.701L103.876 135.299L111.876 188.299L115.831 187.701ZM105.853 133H105.653V137H105.853V133ZM103.653 135V188H107.653V135H103.653ZM105.653 186H96.0531V190H105.653V186ZM98.0531 188V118H94.0531V188H98.0531Z" fill="white"/>
<defs>
<radialGradient id="paint0_angular_7310_34" cx="0" cy="0" r="1" gradientUnits="userSpaceOnUse" gradientTransform="translate(80.1594 72.5377) rotate(76.3866) scale(141.653 221.598)">
<stop offset="0.0895454" stop-color="#003D85"/>
<stop offset="0.870294" stop-color="#B80027"/>
</radialGradient>
</defs>
</svg>
